<svg width="24" height="24" viewBox="0 0 24 24" fill="none" xmlns="http://www.w3.org/2000/svg">
<g id="ini&#195;&#173;cio">
<path id="Icon" d="M9 17H15M7.8 21.5H16.2C17.8802 21.5 18.7202 21.5 19.362 21.173C19.9265 20.8854 20.3854 20.4265 20.673 19.862C21 19.2202 21 18.3802 21 16.7V12.7482C21 11.9218 21 11.5086 20.897 11.1257C20.8057 10.7865 20.6556 10.4659 20.4534 10.1786C20.2252 9.8543 19.9077 9.58978 19.2729 9.06074L15.0729 5.56074C13.9797 4.64976 13.4331 4.19428 12.823 4.02022C12.2851 3.86676 11.7149 3.86676 11.177 4.02022C10.5669 4.19428 10.0203 4.64977 8.92711 5.56074L4.72711 9.06074C4.09226 9.58978 3.77484 9.8543 3.54664 10.1786C3.34444 10.4659 3.19429 10.7865 3.10301 11.1257C3 11.5086 3 11.9218 3 12.7482L3 16.7C3 18.3802 3 19.2202 3.32698 19.862C3.6146 20.4265 4.07354 20.8854 4.63803 21.173C5.27976 21.5 6.11984 21.5 7.8 21.5Z" stroke="#9499A1" stroke-width="2" stroke-linecap="round" stroke-linejoin="round"/>
</g>
</svg>
