<svg width="20" height="20" viewBox="0 0 20 20" fill="none" xmlns="http://www.w3.org/2000/svg">
<g id="Frame 5" clip-path="url(#clip0_47_2636)">
<path id="Union" fill-rule="evenodd" clip-rule="evenodd" d="M0.839844 5.81967C0.839844 3.06561 3.07245 0.833008 5.82651 0.833008H14.0398C16.7939 0.833008 19.0265 3.06561 19.0265 5.81967C19.0265 8.57373 16.7939 10.8063 14.0398 10.8063H10.8132V12.5356C11.9689 12.8471 12.8791 13.7573 13.1906 14.913H17.8532V16.673H13.1906C12.8035 18.1093 11.4918 19.1663 9.93318 19.1663C8.37457 19.1663 7.06285 18.1093 6.67578 16.673H1.71984V14.913H6.67578C6.98725 13.7573 7.89742 12.8471 9.05318 12.5356V10.8063H5.82651C3.07245 10.8063 0.839844 8.57373 0.839844 5.81967ZM5.82651 2.59301C4.04447 2.59301 2.59984 4.03764 2.59984 5.81967C2.59984 7.60171 4.04447 9.04634 5.82651 9.04634H14.0398C15.8219 9.04634 17.2665 7.60171 17.2665 5.81967C17.2665 4.03764 15.8219 2.59301 14.0398 2.59301H5.82651ZM6.11984 6.69967C6.60585 6.69967 6.99984 6.30569 6.99984 5.81967C6.99984 5.33366 6.60585 4.93967 6.11984 4.93967C5.63383 4.93967 5.23984 5.33366 5.23984 5.81967C5.23984 6.30569 5.63383 6.69967 6.11984 6.69967ZM9.49318 4.93967C9.00717 4.93967 8.61318 5.33366 8.61318 5.81967C8.61318 6.30569 9.00717 6.69967 9.49318 6.69967H13.7465C14.2325 6.69967 14.6265 6.30569 14.6265 5.81967C14.6265 5.33366 14.2325 4.93967 13.7465 4.93967H9.49318ZM11.2532 15.793C11.2532 16.522 10.6622 17.113 9.93318 17.113C9.20416 17.113 8.61318 16.522 8.61318 15.793C8.61318 15.064 9.20416 14.473 9.93318 14.473C10.6622 14.473 11.2532 15.064 11.2532 15.793Z" fill="#9499A1"/>
</g>
<defs>
<clipPath id="clip0_47_2636">
<rect width="20" height="20" fill="white"/>
</clipPath>
</defs>
</svg>
