<svg width="22" height="23" viewBox="0 0 22 23" fill="none" xmlns="http://www.w3.org/2000/svg">
<g id="Frame 1000004058">
<path id="Icon" d="M1 16.7917V12.4926C1 11.8487 1 11.5267 1.10267 11.2446C1.19344 10.9953 1.34138 10.7695 1.53521 10.5845C1.75445 10.3752 2.05378 10.2403 2.65246 9.97048L9 7.1095M13 16.3576H13.0089M1 13.4931L1 19.2222C1 20.1946 1 20.6807 1.19377 21.0521C1.36421 21.3788 1.63617 21.6444 1.97068 21.8108C2.35097 22 2.8488 22 3.84444 22H14.1556C15.1512 22 15.649 22 16.0293 21.8108C16.3638 21.6444 16.6358 21.3788 16.8062 21.0521C17 20.6807 17 20.1946 17 19.2222V13.4931C17 12.5207 17 12.0346 16.8062 11.6632C16.6358 11.3365 16.3638 11.0709 16.0293 10.9045C15.649 10.7153 15.1512 10.7153 14.1556 10.7153L3.84445 10.7153C2.8488 10.7153 2.35097 10.7153 1.97068 10.9045C1.63617 11.0709 1.36421 11.3365 1.19377 11.6632C1 12.0346 1 12.5207 1 13.4931ZM13.4444 16.3576C13.4444 16.5974 13.2455 16.7917 13 16.7917C12.7545 16.7917 12.5556 16.5974 12.5556 16.3576C12.5556 16.1179 12.7545 15.9236 13 15.9236C13.2455 15.9236 13.4444 16.1179 13.4444 16.3576Z" stroke="#9499A1" stroke-width="2" stroke-linecap="round" stroke-linejoin="round"/>
<path id="Icon_2" d="M17.4 16C18.6601 16 19.2902 16 19.7715 15.7548C20.1948 15.539 20.539 15.1948 20.7548 14.7715C21 14.2902 21 13.6601 21 12.4V4.6C21 3.33988 21 2.70982 20.7548 2.22852C20.539 1.80516 20.1948 1.46095 19.7715 1.24524C19.2902 1 18.6601 1 17.4 1H12.6C11.3399 1 10.7098 1 10.2285 1.24524C9.80516 1.46095 9.46095 1.80516 9.24524 2.22852C9 2.70982 9 3.33988 9 4.6V10.5M13.5 7.75H18M13.5 10.75H16M12 4.75H18" stroke="#9499A1" stroke-width="2" stroke-linecap="round" stroke-linejoin="round"/>
</g>
</svg>
