<svg width="21" height="21" viewBox="0 0 21 21" fill="none" xmlns="http://www.w3.org/2000/svg">
<g id="Frame" clip-path="url(#clip0_42_1717)">
<g id="Grupo 7986">
<path id="Caminho 127" d="M16.3767 15.4604C15.9717 15.4618 15.5705 15.3859 15.1961 15.2371C14.8217 15.0884 14.4817 14.8697 14.1957 14.5937L11.0453 11.5555C10.9338 11.4522 10.7849 11.3944 10.63 11.3944C10.4752 11.3944 10.3263 11.4522 10.2148 11.5555L7.05364 14.5985C6.76776 14.8749 6.42783 15.094 6.05346 15.2432C5.6791 15.3923 5.27774 15.4686 4.87258 15.4676H4.25879L8.25048 19.31C8.84919 19.8852 9.66047 20.2082 10.5063 20.2082C11.3521 20.2082 12.1634 19.8852 12.7621 19.31L16.7621 15.4588L16.3767 15.4604Z" fill="#667085"/>
<path id="Caminho 128" d="M4.8759 4.73961C5.28107 4.73854 5.68244 4.8148 6.05681 4.96397C6.43118 5.11314 6.77112 5.33227 7.05696 5.60869L10.2181 8.65244C10.2726 8.70505 10.3373 8.74678 10.4085 8.77526C10.4798 8.80374 10.5562 8.8184 10.6334 8.8184C10.7105 8.8184 10.7869 8.80374 10.8582 8.77526C10.9295 8.74678 10.9942 8.70505 11.0487 8.65244L14.1982 5.62068C14.4838 5.3439 14.8236 5.12449 15.1981 4.97516C15.5725 4.82583 15.974 4.74958 16.3792 4.75081H16.7588L12.7555 0.90034C12.4593 0.615081 12.1076 0.388792 11.7206 0.234403C11.3335 0.0800133 10.9186 0.000549316 10.4997 0.000549316C10.0807 0.000549316 9.66581 0.0800133 9.27875 0.234403C8.89169 0.388792 8.54002 0.615081 8.24384 0.90034L4.25879 4.73961H4.8759Z" fill="#667085"/>
<path id="Caminho 129" d="M20.0651 7.93601L17.6481 5.60943C17.5935 5.631 17.5352 5.64239 17.4762 5.64301H16.3815C15.8095 5.64434 15.2612 5.863 14.8558 6.25143L11.7063 9.2816C11.4226 9.55413 11.0381 9.70719 10.6373 9.70719C10.2365 9.70719 9.8521 9.55413 9.5684 9.2816L6.40644 6.24344C6.00116 5.85471 5.45281 5.63576 4.88069 5.63421H3.52853C3.47166 5.6335 3.41539 5.62294 3.36242 5.60303L0.933016 7.93601C0.335549 8.51234 0 9.29329 0 10.1075C0 10.9217 0.335549 11.7027 0.933016 12.279L3.35993 14.6152C3.41279 14.5949 3.46913 14.5843 3.52604 14.584H4.87737C5.44947 14.5824 5.99778 14.3634 6.40312 13.9748L9.56425 10.9318C9.85238 10.6671 10.2353 10.5195 10.6336 10.5195C11.0319 10.5195 11.4148 10.6671 11.703 10.9318L14.8525 13.9628C15.2579 14.3512 15.8062 14.5699 16.3782 14.5712H17.477C17.5361 14.5717 17.5944 14.5831 17.649 14.6048L20.0659 12.2782C20.3622 11.9931 20.5973 11.6546 20.7577 11.282C20.9181 10.9094 21.0006 10.51 21.0006 10.1067C21.0006 9.70339 20.9181 9.30403 20.7577 8.93144C20.5973 8.55885 20.3622 8.22032 20.0659 7.93521" fill="#667085"/>
</g>
</g>
<defs>
<clipPath id="clip0_42_1717">
<rect width="21" height="20.215" fill="white"/>
</clipPath>
</defs>
</svg>
